<?xml version="1.0" encoding="UTF-8" standalone="no"?>
<!DOCTYPE svg PUBLIC "-//W3C//DTD SVG 1.1//EN" "http://www.w3.org/Graphics/SVG/1.1/DTD/svg11.dtd">
<svg version="1.1" xmlns="http://www.w3.org/2000/svg" xmlns:xlink="http://www.w3.org/1999/xlink" preserveAspectRatio="xMidYMid meet" viewBox="0 0 443 396" width="443" height="396"><defs><path d="M134.98 179.53L87.45 263.69L220.12 253.79L333 312.2L429.03 215.17L372.6 88.44L275.57 120.12L142.9 26.06L134.98 179.53Z" id="b1ukpxAn2Y"></path><path d="M231.88 257.38C231.88 264.28 226.28 269.88 219.38 269.88C212.48 269.88 206.88 264.28 206.88 257.38C206.88 250.48 212.48 244.88 219.38 244.88C226.28 244.88 231.88 250.48 231.88 257.38Z" id="aCPIgk49"></path><path d="M28.54 64.68L146.36 26.06" id="b1HreXc0JG"></path><path d="M347.13 310.2C347.13 317.1 341.53 322.7 334.63 322.7C327.73 322.7 322.13 317.1 322.13 310.2C322.13 303.3 327.73 297.7 334.63 297.7C341.53 297.7 347.13 303.3 347.13 310.2Z" id="eKaSwiKiH"></path><path d="M441.53 217.85C441.53 224.75 435.93 230.35 429.03 230.35C422.14 230.35 416.53 224.75 416.53 217.85C416.53 210.95 422.14 205.35 429.03 205.35C435.93 205.35 441.53 210.95 441.53 217.85Z" id="c2GoIeujY5"></path><path d="M384.65 91.73C384.65 98.63 379.05 104.23 372.15 104.23C365.25 104.23 359.65 98.63 359.65 91.73C359.65 84.83 365.25 79.23 372.15 79.23C379.05 79.23 384.65 84.83 384.65 91.73Z" id="bbnAxFvZN"></path><path d="M286.73 119.03C286.73 125.93 281.13 131.53 274.23 131.53C267.33 131.53 261.73 125.93 261.73 119.03C261.73 112.14 267.33 106.53 274.23 106.53C281.13 106.53 286.73 112.14 286.73 119.03Z" id="g3GsIMcB"></path><path d="M156.86 26.06C156.86 32.96 151.26 38.56 144.36 38.56C137.46 38.56 131.86 32.96 131.86 26.06C131.86 19.17 137.46 13.56 144.36 13.56C151.26 13.56 156.86 19.17 156.86 26.06Z" id="b56LeKNLsH"></path><path d="M144.36 183.02C144.36 189.92 138.76 195.52 131.86 195.52C124.96 195.52 119.36 189.92 119.36 183.02C119.36 176.12 124.96 170.52 131.86 170.52C138.76 170.52 144.36 176.12 144.36 183.02Z" id="bzcJubIw4"></path><path d="M99.95 262.95C99.95 269.84 94.35 275.45 87.45 275.45C80.55 275.45 74.95 269.84 74.95 262.95C74.95 256.05 80.55 250.45 87.45 250.45C94.35 250.45 99.95 256.05 99.95 262.95Z" id="a2lJnHhcT"></path><path d="M38.51 64.31C38.51 71.21 32.91 76.81 26.01 76.81C19.12 76.81 13.51 71.21 13.51 64.31C13.51 57.41 19.12 51.81 26.01 51.81C32.91 51.81 38.51 57.41 38.51 64.31Z" id="bagtfMxTZ"></path></defs><g><g><g><use xlink:href="#b1ukpxAn2Y" opacity="1" fill="#ffffff" fill-opacity="0"></use><g><use xlink:href="#b1ukpxAn2Y" opacity="1" fill-opacity="0" stroke="#000000" stroke-width="4" stroke-opacity="1"></use></g></g><g><use xlink:href="#aCPIgk49" opacity="1" fill="#ff0000" fill-opacity="1"></use></g><g><g><use xlink:href="#b1HreXc0JG" opacity="1" fill-opacity="0" stroke="#000000" stroke-width="4" stroke-opacity="1"></use></g></g><g><use xlink:href="#eKaSwiKiH" opacity="1" fill="#ff0000" fill-opacity="1"></use></g><g><use xlink:href="#c2GoIeujY5" opacity="1" fill="#ff0000" fill-opacity="1"></use></g><g><use xlink:href="#bbnAxFvZN" opacity="1" fill="#ff0000" fill-opacity="1"></use></g><g><use xlink:href="#g3GsIMcB" opacity="1" fill="#ff0000" fill-opacity="1"></use></g><g><use xlink:href="#b56LeKNLsH" opacity="1" fill="#ff0000" fill-opacity="1"></use></g><g><use xlink:href="#bzcJubIw4" opacity="1" fill="#ff0000" fill-opacity="1"></use></g><g><use xlink:href="#a2lJnHhcT" opacity="1" fill="#ff0000" fill-opacity="1"></use></g><g><use xlink:href="#bagtfMxTZ" opacity="1" fill="#ff0000" fill-opacity="1"></use></g></g></g></svg>