<?xml version="1.0" encoding="UTF-8" standalone="no"?>
<!DOCTYPE svg PUBLIC "-//W3C//DTD SVG 1.1//EN" "http://www.w3.org/Graphics/SVG/1.1/DTD/svg11.dtd">
<svg version="1.1" xmlns="http://www.w3.org/2000/svg" xmlns:xlink="http://www.w3.org/1999/xlink" preserveAspectRatio="xMidYMid meet" viewBox="0 0 447 349" width="447" height="349"><defs><path d="M434.88 100.68L394.04 278.85L322.2 162.65L224.32 273.21L261.73 89.41L116.57 142.23L105.3 37.3L43.33 79.23L82.56 180.96L15.87 253.49" id="a3LuLv26pU"></path><path d="M15.87 252.44C15.87 252.63 15.87 252.79 15.87 252.79C15.87 252.79 15.87 252.63 15.87 252.44C15.87 252.24 15.87 252.08 15.87 252.08C15.87 252.15 15.87 252.24 15.87 252.44Z" id="cl2LxPJVu"></path><path d="M30.08 254.62C30.08 261.52 24.48 267.12 17.58 267.12C10.68 267.12 5.08 261.52 5.08 254.62C5.08 247.72 10.68 242.12 17.58 242.12C24.48 242.12 30.08 247.72 30.08 254.62Z" id="dE6zdKdFp"></path><path d="M93.22 183.2C93.22 190.09 87.62 195.7 80.72 195.7C73.82 195.7 68.22 190.09 68.22 183.2C68.22 176.3 73.82 170.7 80.72 170.7C87.62 170.7 93.22 176.3 93.22 183.2Z" id="e8FHdOd0xr"></path><path d="M59.18 81.49C59.18 88.38 53.57 93.99 46.68 93.99C39.78 93.99 34.18 88.38 34.18 81.49C34.18 74.59 39.78 68.99 46.68 68.99C53.57 68.99 59.18 74.59 59.18 81.49Z" id="b8gvKEWl9"></path><path d="M116.68 37.3C116.68 44.19 111.08 49.8 104.18 49.8C97.28 49.8 91.68 44.19 91.68 37.3C91.68 30.4 97.28 24.8 104.18 24.8C111.08 24.8 116.68 30.4 116.68 37.3Z" id="g2FbWrlfT"></path><path d="M129.18 143.04C128.95 149.94 123.16 155.35 116.27 155.12C109.37 154.89 103.96 149.11 104.19 142.21C104.42 135.32 110.2 129.91 117.1 130.14C123.99 130.36 129.4 136.15 129.18 143.04Z" id="fmsW1K6Nl"></path><path d="M278.23 89.92C278 96.82 272.22 102.23 265.32 102C258.43 101.77 253.02 95.99 253.24 89.1C253.47 82.2 259.26 76.79 266.15 77.02C273.05 77.25 278.46 83.03 278.23 89.92Z" id="b4LC0H1tW"></path><path d="M237.87 272.02C237.64 278.91 231.85 284.33 224.96 284.1C218.06 283.87 212.65 278.08 212.88 271.19C213.11 264.29 218.89 258.88 225.79 259.11C232.68 259.34 238.1 265.12 237.87 272.02Z" id="g1JHAxAG7p"></path><path d="M332.7 164.67C332.47 171.57 326.68 176.98 319.79 176.75C312.89 176.52 307.48 170.74 307.71 163.85C307.94 156.95 313.72 151.54 320.62 151.77C327.51 152 332.92 157.78 332.7 164.67Z" id="iRafhtFhW"></path><path d="M404.29 279.26C404.06 286.15 398.27 291.57 391.38 291.34C384.48 291.11 379.07 285.33 379.3 278.43C379.53 271.54 385.31 266.12 392.21 266.35C399.1 266.58 404.51 272.36 404.29 279.26Z" id="b9OwtLE0p"></path><path d="M444.4 102.43C444.17 109.32 438.39 114.73 431.49 114.5C424.6 114.28 419.19 108.49 419.42 101.6C419.64 94.7 425.43 89.29 432.32 89.52C439.22 89.75 444.63 95.53 444.4 102.43Z" id="d1ULllIN0t"></path></defs><g><g><g><g><use xlink:href="#a3LuLv26pU" opacity="1" fill-opacity="0" stroke="#000000" stroke-width="4" stroke-opacity="1"></use></g></g><g><use xlink:href="#cl2LxPJVu" opacity="1" fill="#ffffff" fill-opacity="0.98"></use></g><g><use xlink:href="#dE6zdKdFp" opacity="1" fill="#fa0000" fill-opacity="0.98"></use></g><g><use xlink:href="#e8FHdOd0xr" opacity="1" fill="#f90000" fill-opacity="0.98"></use></g><g><use xlink:href="#b8gvKEWl9" opacity="1" fill="#f90000" fill-opacity="0.98"></use></g><g><use xlink:href="#g2FbWrlfT" opacity="1" fill="#f90000" fill-opacity="0.98"></use></g><g><use xlink:href="#fmsW1K6Nl" opacity="1" fill="#f90000" fill-opacity="0.98"></use></g><g><use xlink:href="#b4LC0H1tW" opacity="1" fill="#f90000" fill-opacity="0.98"></use></g><g><use xlink:href="#g1JHAxAG7p" opacity="1" fill="#f90000" fill-opacity="0.98"></use></g><g><use xlink:href="#iRafhtFhW" opacity="1" fill="#f90000" fill-opacity="0.98"></use></g><g><use xlink:href="#b9OwtLE0p" opacity="1" fill="#f90000" fill-opacity="0.98"></use></g><g><use xlink:href="#d1ULllIN0t" opacity="1" fill="#f90000" fill-opacity="0.98"></use></g></g></g></svg>